<svg width="22" height="22" viewBox="0 0 22 22" fill="none" xmlns="http://www.w3.org/2000/svg">
<ellipse cx="10.6142" cy="6.67161" rx="4.37986" ry="4.37986" stroke="#807A7A" stroke-width="1.5" stroke-linecap="round" stroke-linejoin="round"/>
<path fill-rule="evenodd" clip-rule="evenodd" d="M3.66676 17.1431C3.66559 16.8352 3.73445 16.5311 3.86814 16.2537C4.28766 15.4146 5.47073 14.9699 6.45242 14.7686C7.16042 14.6175 7.87819 14.5165 8.6004 14.4665C9.93752 14.3491 11.2824 14.3491 12.6195 14.4665C13.3416 14.5171 14.0594 14.6181 14.7674 14.7686C15.7491 14.9699 16.9322 15.3727 17.3517 16.2537C17.6206 16.8191 17.6206 17.4755 17.3517 18.0409C16.9322 18.9219 15.7491 19.3246 14.7674 19.5176C14.0603 19.675 13.3423 19.7787 12.6195 19.8281C11.5312 19.9203 10.4378 19.9371 9.34716 19.8784C9.09544 19.8784 8.85212 19.8784 8.6004 19.8281C7.88033 19.7793 7.16504 19.6756 6.46081 19.5176C5.47073 19.3246 4.29605 18.9219 3.86814 18.0409C3.73513 17.7603 3.66634 17.4536 3.66676 17.1431Z" stroke="#807A7A" stroke-width="1.5" stroke-linecap="round" stroke-linejoin="round"/>
</svg>
